<svg xmlns="http://www.w3.org/2000/svg" viewBox="0 0 32 32" width="32" height="32"><rect width="32" height="32" rx="6" fill="#5074A9"></rect><g transform="translate(3.84 4.17) scale(0.3286)"><g><rect x="0" y="0" width="10" height="72" rx="1" fill="#8FA9D1"></rect><rect x="0" y="0" width="10" height="4.2" rx="1" fill="#F2E9DB"></rect><rect x="0" y="2.8" width="10" height="1.4" fill="#F2E9DB"></rect><rect x="0" y="67.8" width="10" height="4.2" rx="1" fill="#F2E9DB"></rect><rect x="0" y="67.8" width="10" height="1.4" fill="#F2E9DB"></rect><rect x="1.8" y="6.7" width="6.4" height="4.6" rx="2.3" fill="#F2E9DB"></rect><rect x="2.5" y="7.1" width=".6" height="3.8" fill="#5074A9"></rect><rect x="6.9" y="7.1" width=".6" height="3.8" fill="#5074A9"></rect><ellipse cx="5" cy="9" rx="1.4" ry="1" fill="#8FA9D1"></ellipse><rect x="2.6" y="28" width="4.8" height="16" rx="2.4" fill="#F2E9DB"></rect><rect x="3" y="33.5" width="4" height=".6" fill="#5074A9"></rect><rect x="3" y="38.5" width="4" height=".6" fill="#5074A9"></rect><ellipse cx="5" cy="36" rx="1" ry="1.5" fill="#8FA9D1"></ellipse><rect x="3.5" y="51" width="3" height="13.5" rx="1.5" fill="#5074A9"></rect><rect x="35.1" y="0" width="14" height="27.6" fill="#F2E9DB"></rect><rect x="12.5" y="0" width="22" height="23.8" fill="#F2E9DB"></rect><rect x="12.5" y="25.3" width="22" height="2.3" fill="#8FA9D1"></rect><rect x="12.5" y="39" width="39.1" height="6" fill="#F2E9DB"></rect><rect x="35.1" y="46.5" width="14" height="25.5" fill="#F2E9DB"></rect><rect x="37.8" y="49.4" width="2.5" height="6.1" rx="1.25" fill="#5074A9"></rect><rect x="12.5" y="46.5" width="22" height="25.5" fill="#F2E9DB"></rect><circle cx="18" cy="49.6" r="1.5" fill="#5074A9"></circle><circle cx="23.5" cy="49.6" r="1.5" fill="#5074A9"></circle><circle cx="28.9" cy="49.6" r="1.5" fill="#5074A9"></circle><rect x="15" y="52.6" width="17" height="2.3" rx="1.15" fill="#5074A9"></rect><rect x="15.4" y="56.6" width="16.2" height="13" rx=".4" fill="#5074A9"></rect><rect x="51" y="0" width=".6" height="39" fill="#5074A9"></rect><rect x="51" y="45" width=".6" height="27" fill="#5074A9"></rect><rect x="51.6" y="0" width="22" height="72" fill="#F2E9DB"></rect><rect x="54.3" y="36.5" width="2.5" height="6.1" rx="1.25" fill="#5074A9"></rect></g></g></svg>